<svg width="16" height="14" viewBox="0 0 16 14" fill="none" xmlns="http://www.w3.org/2000/svg">
<path d="M0.881898 5.28562L0.857407 5.29097H11.3564L8.05593 1.98319C7.89431 1.8217 7.80565 1.60293 7.80565 1.37332C7.80565 1.14371 7.89431 0.926475 8.05593 0.7646L8.56949 0.250785C8.73098 0.0892927 8.94617 0 9.17566 0C9.40527 0 9.62059 0.0886549 9.78208 0.250147L15.4398 5.90735C15.6019 6.06948 15.6906 6.28544 15.6899 6.51518C15.6906 6.74619 15.6019 6.96228 15.4398 7.12415L9.78208 12.7819C9.62059 12.9432 9.40539 13.032 9.17566 13.032C8.94617 13.032 8.73098 12.9431 8.56949 12.7819L8.05593 12.268C7.89431 12.1068 7.80565 11.8915 7.80565 11.6619C7.80565 11.4324 7.89431 11.2284 8.05593 11.0671L11.3937 7.74078H0.870163C0.397295 7.74078 -5.81741e-05 7.33322 -5.81741e-05 6.86061V6.1339C-5.81741e-05 5.66128 0.40903 5.28562 0.881898 5.28562Z" fill="white"/>
</svg>
