<svg width="16" height="14" viewBox="0 0 16 14" fill="none" xmlns="http://www.w3.org/2000/svg">
<path d="M14.808 5.28562L14.8325 5.29097H4.3335L7.63402 1.98319C7.79564 1.8217 7.88429 1.60293 7.88429 1.37332C7.88429 1.14371 7.79564 0.926475 7.63402 0.7646L7.12046 0.250785C6.95896 0.0892927 6.74377 0 6.51429 0C6.28468 0 6.06935 0.0886549 5.90786 0.250147L0.25015 5.90735C0.0880205 6.06948 -0.000634387 6.28544 3.41753e-06 6.51518C-0.000634387 6.74619 0.0880205 6.96228 0.25015 7.12415L5.90786 12.7819C6.06935 12.9432 6.28455 13.032 6.51429 13.032C6.74377 13.032 6.95896 12.9431 7.12046 12.7819L7.63402 12.268C7.79564 12.1068 7.88429 11.8915 7.88429 11.6619C7.88429 11.4324 7.79564 11.2284 7.63402 11.0671L4.29626 7.74078H14.8198C15.2926 7.74078 15.69 7.33322 15.69 6.86061V6.1339C15.69 5.66128 15.2809 5.28562 14.808 5.28562Z" fill="white"/>
</svg>
