<svg width="16" height="16" viewBox="0 0 16 16" fill="none" xmlns="http://www.w3.org/2000/svg">
<path fill-rule="evenodd" clip-rule="evenodd" d="M14.1544 6.7686H12.7614C12.8629 7.16258 12.9228 7.57419 12.9228 7.99963C12.9228 10.719 10.7188 12.9229 8.00002 12.9229C5.28122 12.9229 3.07717 10.719 3.07717 7.99963C3.07717 7.57419 3.13733 7.16254 3.2388 6.7686H1.84583V13.5382C1.84583 13.8777 2.1214 14.1531 2.46175 14.1531H13.5382C13.8787 14.1531 14.1543 13.8777 14.1543 13.5382V6.7686H14.1544ZM14.2772 2.48581C14.2772 2.13244 13.9905 1.84587 13.6366 1.84587H11.7172C11.3636 1.84587 11.0772 2.13244 11.0772 2.48581V4.40592C11.0772 4.75905 11.3636 5.04587 11.7172 5.04587H13.6366C13.9906 5.04587 14.2772 4.75905 14.2772 4.40592V2.48581ZM8.00002 4.92304C6.30048 4.92304 4.923 6.30025 4.923 7.99967C4.923 9.69894 6.30052 11.077 8.00002 11.077C9.6994 11.077 11.0772 9.69894 11.0772 7.99967C11.0772 6.30021 9.6994 4.92304 8.00002 4.92304ZM14.1544 16H1.84583C0.826565 16 0 15.1732 0 14.1531V1.84587C0 0.826293 0.826565 0 1.84583 0H14.1543C15.1737 0 16 0.826293 16 1.84587V14.1531C16 15.1732 15.1738 16 14.1544 16Z" fill="white" fill-opacity="0.3"/>
</svg>
