<svg width="13" height="16" viewBox="0 0 13 16" fill="none" xmlns="http://www.w3.org/2000/svg">
<path fill-rule="evenodd" clip-rule="evenodd" d="M6.56802 0C2.2017 0 0 3.13055 0 5.74107C0 7.32173 0.598484 8.72802 1.88201 9.25213C2.09242 9.33815 2.28104 9.25512 2.34205 9.02207C2.3845 8.86079 2.485 8.45388 2.52982 8.28456C2.59133 8.05404 2.56749 7.97318 2.39766 7.77229C2.02757 7.33571 1.79102 6.77055 1.79102 5.97004C1.79102 3.64749 3.52873 1.56838 6.31587 1.56838C8.78378 1.56838 10.1397 3.07638 10.1397 5.09032C10.1397 7.74017 8.967 9.97667 7.22612 9.97667C6.2646 9.97667 5.54496 9.18153 5.7756 8.20639C6.05191 7.04208 6.58701 5.78565 6.58701 4.94523C6.58701 4.193 6.18321 3.56554 5.34748 3.56554C4.36465 3.56554 3.5751 4.58232 3.5751 5.94433C3.5751 6.81179 3.86826 7.39854 3.86826 7.39854C3.86826 7.39854 2.86252 11.6602 2.68617 12.4065C2.33498 13.8928 2.63331 15.7149 2.65867 15.8989C2.67343 16.008 2.81358 16.0339 2.87696 15.9515C2.96764 15.8332 4.13828 14.388 4.53622 12.9441C4.64884 12.5352 5.18274 10.4179 5.18274 10.4179C5.502 11.027 6.43521 11.5634 7.42759 11.5634C10.382 11.5634 12.3863 8.87007 12.3863 5.26492C12.3863 2.53879 10.0773 0 6.56802 0Z" fill="white" fill-opacity="0.3"/>
</svg>
