<svg width="16" height="14" viewBox="0 0 16 14" fill="none" xmlns="http://www.w3.org/2000/svg">
<path fill-rule="evenodd" clip-rule="evenodd" d="M16 1.53918C15.4113 1.80031 14.7787 1.97682 14.1147 2.05608C14.7923 1.64983 15.3129 1.00656 15.5579 0.24C14.9236 0.616194 14.2212 0.889359 13.4734 1.03654C12.8747 0.398563 12.0216 0 11.0774 0C8.95856 0 7.40097 1.97732 7.87984 4.03056C5.15169 3.89371 2.73289 2.5868 1.1139 0.600893C0.254019 2.07596 0.667884 4.00637 2.12975 4.98342C1.59173 4.96641 1.08544 4.81872 0.642951 4.57278C0.60734 6.09363 1.69717 7.51573 3.27577 7.83293C2.81379 7.95864 2.30777 7.98742 1.79344 7.88913C2.21107 9.1932 3.42342 10.1423 4.85984 10.1687C3.47977 11.2502 1.74159 11.7333 0 11.528C1.45266 12.4594 3.17814 13.0029 5.03188 13.0029C11.1263 13.0029 14.5696 7.85526 14.362 3.23841C15.0035 2.77561 15.5599 2.19748 16 1.53918Z" fill="white" fill-opacity="0.3"/>
</svg>
